<?xml version="1.0" encoding="UTF-8"?>
<svg version="1.1" xmlns="http://www.w3.org/2000/svg" width="700" height="441">
<path d="M0 0 C231 0 462 0 700 0 C700 145.53 700 291.06 700 441 C469 441 238 441 0 441 C0 295.47 0 149.94 0 0 Z " fill="#7e173c" transform="translate(0,0)"/>
<path d="M0 0 C1.38933116 4.16799347 -0.00949615 7.29941051 -1.1875 11.375 C-4.06376155 21.82042381 -6.21070032 32.31790239 -8 43 C-8.12004395 43.69174316 -8.24008789 44.38348633 -8.36376953 45.09619141 C-10.0415384 55.1052954 -10.22621047 65.11889571 -10.3125 75.25 C-10.33022461 76.50546631 -10.34794922 77.76093262 -10.36621094 79.05444336 C-10.35546827 92.66272085 -8.07819749 107.92180251 2 118 C19.32196899 131.0945837 37.70232907 132.21262517 58.87548828 129.28027344 C89.50333315 124.02978575 119.89653909 107.01243133 144.89794922 89.11352539 C145.65221191 88.57848389 146.40647461 88.04344238 147.18359375 87.4921875 C147.84931396 87.01120605 148.51503418 86.53022461 149.20092773 86.03466797 C151 85 151 85 154 85 C136.39573914 102.11771094 114.59887302 114.90653197 93.48120117 127.17260742 C76.06500285 137.3415199 58.93730998 148.02108169 44.2421875 161.9453125 C42 164 42 164 39.7578125 165.5546875 C37.49601181 167.25323821 36.25257697 168.45385264 35 171 C35.01954369 173.90419252 35.396294 176.61309039 35.93066406 179.46459961 C37.43855159 188.0013426 37.12104123 196.57669816 36.9614563 205.21020508 C36.92506905 207.2051172 36.89987673 209.20022364 36.875 211.1953125 C36.85179688 212.36078613 36.82859375 213.52625977 36.8046875 214.72705078 C37.00955738 218.16015782 37.83436789 220.78071396 39 224 C39.47274847 226.66701495 39.72087956 229.30183576 40 232 C40.42667969 230.91847656 40.85335937 229.83695313 41.29296875 228.72265625 C62.85632782 175.22825614 62.85632782 175.22825614 83.859375 162.23046875 C91.63837808 159.18272501 97.94292954 162.11934424 105.1953125 165.22265625 C112.45208812 168.51605994 121.12651545 172.66128015 125 180 C125.62741651 183.37787887 125.51759237 186.63968265 125.375 190.0625 C125.35284424 191.03783691 125.33068848 192.01317383 125.30786133 193.01806641 C125.23122281 196.01349628 125.11779736 199.00594202 125 202 C124.95339912 203.66273192 124.90776949 205.32549146 124.86328125 206.98828125 C124.5114308 217.73914738 123.53343419 228.4228544 122.5 239.125 C115.9242527 286.09405584 115.9242527 286.09405584 124 331 C124 331.99 124 332.98 124 334 C116.69409868 336.80996205 108.2014402 337.31703133 100.5625 335.3828125 C98.48734828 334.43727966 96.82007868 333.37474028 95 332 C94.22914063 331.42894531 93.45828125 330.85789062 92.6640625 330.26953125 C83.77771049 323.06554685 81.46731987 315.03169358 80 304 C79.64753174 299.20521 79.57109581 294.43183878 79.5625 289.625 C79.55940323 288.59401688 79.55940323 288.59401688 79.5562439 287.54220581 C79.56328389 274.12607402 80.80026862 260.88367643 82.3125 247.5625 C82.41909943 246.62053772 82.52569885 245.67857544 82.63552856 244.70806885 C83.89539879 233.75414074 85.42506021 222.87624596 87.32836914 212.015625 C89.50054924 199.43172084 90.39402693 186.74138103 91 174 C81.89746149 176.31134359 77.92752574 184.7193808 73.36328125 192.328125 C56.41632397 221.54617709 44.49065093 254.99459861 36.1875 287.6875 C35.8766748 288.90808105 35.8766748 288.90808105 35.55957031 290.15332031 C32.14982455 304.03955305 31.22096436 317.85454373 36.125 331.42578125 C37 334 37 334 37 337 C30.82135296 337.40295524 25.83731378 335.93135981 20 334 C22.14377436 343.71965492 25.25440273 353.03637294 28.50585938 362.42651367 C29.37157557 364.92760667 30.22936076 367.43131093 31.0859375 369.93554688 C33.94395074 378.25529191 36.8901753 386.49271029 40.23681641 394.63110352 C41 397 41 397 40 399 C15.03677698 371.33058687 -0.31016846 334.97445535 -12 300 C-18.79419755 301.08267813 -24.83933293 307.29606118 -29 312.5 C-29.99 313.7375 -29.99 313.7375 -31 315 C-31.66 315 -32.32 315 -33 315 C-33.72804467 298.13400526 -33.70792051 279.8998401 -26.33203125 264.28515625 C-23.19771214 256.55506131 -26.00638393 248.859467 -27.8125 241.0625 C-30.69426868 228.08021635 -32.70215646 215.22760408 -34 202 C-34.10296387 201.03562012 -34.20592773 200.07124023 -34.31201172 199.07763672 C-41.22532937 132.94787627 -35.07061263 58.20051668 0 0 Z " fill="#5B8E18" transform="translate(48,15)"/>
<path d="M0 0 C12.76772037 6.87610964 12.76772037 6.87610964 16 13 C16.62741651 16.37787887 16.51759237 19.63968265 16.375 23.0625 C16.35284424 24.03783691 16.33068848 25.01317383 16.30786133 26.01806641 C16.23122281 29.01349628 16.11779736 32.00594202 16 35 C15.95339912 36.66273192 15.90776949 38.32549146 15.86328125 39.98828125 C15.5114308 50.73914738 14.53343419 61.4228544 13.5 72.125 C6.9242527 119.09405584 6.9242527 119.09405584 15 164 C15 164.99 15 165.98 15 167 C7.69409868 169.80996205 -0.7985598 170.31703133 -8.4375 168.3828125 C-10.51265172 167.43727966 -12.17992132 166.37474028 -14 165 C-14.77085937 164.42894531 -15.54171875 163.85789062 -16.3359375 163.26953125 C-25.22228951 156.06554685 -27.53268013 148.03169358 -29 137 C-29.35246826 132.20521 -29.42890419 127.43183878 -29.4375 122.625 C-29.44059677 121.59401688 -29.44059677 121.59401688 -29.4437561 120.54220581 C-29.43671611 107.12607402 -28.19973138 93.88367643 -26.6875 80.5625 C-26.58090057 79.62053772 -26.47430115 78.67857544 -26.36447144 77.70806885 C-25.10460121 66.75414074 -23.57493979 55.87624596 -21.67163086 45.015625 C-19.49945076 32.43172084 -18.60597307 19.74138103 -18 7 C-27.10253851 9.31134359 -31.07247426 17.7193808 -35.63671875 25.328125 C-52.58367603 54.54617709 -64.50934907 87.99459861 -72.8125 120.6875 C-73.0197168 121.5012207 -73.22693359 122.31494141 -73.44042969 123.15332031 C-76.85017545 137.03955305 -77.77903564 150.85454373 -72.875 164.42578125 C-72 167 -72 167 -72 170 C-82.90425504 170.71114707 -92.2190879 166.1961084 -101 160 C-109.10837281 152.70819477 -111.27167718 145.29455574 -111.88671875 134.59765625 C-111.92410156 133.74042969 -111.96148437 132.88320313 -112 132 C-110.47632813 131.07380859 -110.47632813 131.07380859 -108.921875 130.12890625 C-90.65198285 118.93079919 -73.18883693 107.69814453 -66.5078125 86.1328125 C-65.44763092 81.68004987 -64.94777291 77.76240562 -65.2890625 73.19140625 C-66.38695895 56.87333629 -61.97030503 46.02620094 -54 32 C-53.26377799 30.62476949 -52.53151557 29.24740587 -51.8046875 27.8671875 C-39.51835024 4.93757772 -26.37884709 -12.69040174 0 0 Z " fill="#7e173c" transform="translate(157,182)"/>
<path d="M0 0 C9.31876429 0.16640651 18.3730011 3.37867012 25.625 9.25 C32.15473255 19.24865297 30.85585143 33.69577058 30.625 45.1875 C30.57139795 47.90493235 30.53172579 50.62207806 30.5 53.33984375 C30.47679688 54.52441162 30.45359375 55.70897949 30.4296875 56.92944336 C30.63245497 60.37674386 31.41756828 63.03105073 32.625 66.25 C33.09774847 68.91701495 33.34587956 71.55183576 33.625 74.25 C34.615 71.61 35.605 68.97 36.625 66.25 C39.28491145 68.90991145 38.9109728 70.94995828 38.95458984 74.57202148 C38.9489502 75.41450439 38.94331055 76.2569873 38.9375 77.125 C38.93186035 77.98617432 38.9262207 78.84734863 38.92041016 79.73461914 C38.60535694 96.37785116 32.45026935 109.58811952 20.625 121.25 C20.03332031 121.85199219 19.44164062 122.45398438 18.83203125 123.07421875 C12.3053538 129.25511197 4.29090182 133.64164511 -3.375 138.25 C-4.36113281 138.84296875 -5.34726562 139.4359375 -6.36328125 140.046875 C-7.02714844 140.44390625 -7.69101562 140.8409375 -8.375 141.25 C-8.21273716 150.66124447 -7.30073929 158.80891572 -0.76953125 166.0234375 C1.53636387 168.10243676 3.87354306 169.85007986 6.61878967 171.31108093 C11.46207512 173.89326118 13.61328616 176.066834 15.28346252 181.30186462 C15.60527748 182.4614846 15.60527748 182.4614846 15.93359375 183.64453125 C16.18684921 184.46139908 16.44010468 185.27826691 16.70103455 186.11988831 C17.51454613 188.76020388 18.28818689 191.41045518 19.0625 194.0625 C19.89165677 196.78575356 20.73132924 199.50559789 21.57250977 202.22515869 C22.12979111 204.02706481 22.68400469 205.82992263 23.23510742 207.63372803 C25.8366102 216.0991682 28.89445081 224.34207328 32.17358398 232.56958008 C32.51591064 233.44122803 32.8582373 234.31287598 33.2109375 235.2109375 C33.5104834 235.95134277 33.8100293 236.69174805 34.11865234 237.45458984 C34.625 239.25 34.625 239.25 33.625 241.25 C8.66177698 213.58058687 -6.68516846 177.22445535 -18.375 142.25 C-25.16919755 143.33267813 -31.21433293 149.54606118 -35.375 154.75 C-36.035 155.575 -36.695 156.4 -37.375 157.25 C-38.035 157.25 -38.695 157.25 -39.375 157.25 C-40.38957563 133.74618497 -38.91214455 108.52423956 -22.375 90.25 C-17.33518481 84.82425301 -11.715912 81.64485887 -5.03491211 78.64599609 C-3.44767001 77.91710493 -1.90658391 77.08956567 -0.375 76.25 C0.12 74.765 0.12 74.765 0.625 73.25 C1.54023437 73.18941406 2.45546875 73.12882812 3.3984375 73.06640625 C4.58695313 72.98261719 5.77546875 72.89882812 7 72.8125 C8.77503906 72.69068359 8.77503906 72.69068359 10.5859375 72.56640625 C13.54018901 72.43915064 13.54018901 72.43915064 15.625 71.25 C14.77035156 70.92386719 13.91570312 70.59773438 13.03515625 70.26171875 C11.93042969 69.82472656 10.82570312 69.38773437 9.6875 68.9375 C8.58535156 68.50824219 7.48320313 68.07898438 6.34765625 67.63671875 C3.625 66.25 3.625 66.25 2.625 63.25 C4.56286085 63.72770523 6.50027674 64.20721571 8.4375 64.6875 C9.51644531 64.95433594 10.59539062 65.22117187 11.70703125 65.49609375 C13.6990843 66.01077412 15.67311524 66.59937175 17.625 67.25 C13.207885 61.11704969 13.207885 61.11704969 7.625 56.125 C6.965 55.50625 6.305 54.8875 5.625 54.25 C5.75359619 50.58500872 6.46973732 47.71578805 7.625 44.25 C6.55958984 44.06824219 6.55958984 44.06824219 5.47265625 43.8828125 C4.55355469 43.71523437 3.63445313 43.54765625 2.6875 43.375 C1.31271484 43.13136719 1.31271484 43.13136719 -0.08984375 42.8828125 C-0.84394531 42.67398438 -1.59804688 42.46515625 -2.375 42.25 C-3.74118353 39.51763294 -3.4699447 37.37184098 -3.4375 34.31640625 C-3.42976563 33.10919922 -3.42203125 31.90199219 -3.4140625 30.65820312 C-3.38837789 28.12955364 -3.36234629 25.60090765 -3.3359375 23.07226562 C-3.29354784 16.39236109 -3.46455151 9.87897932 -4.25390625 3.24194336 C-4.31384766 2.2559314 -4.31384766 2.2559314 -4.375 1.25 C-3.375 0.25 -3.375 0.25 0 0 Z " fill="#A2D848" transform="translate(54.375,172.75)"/>
<path d="M0 0 C0.56460937 0.25007813 1.12921875 0.50015625 1.7109375 0.7578125 C1.20385533 5.44395117 -0.92987955 8.56425803 -3.6640625 12.2578125 C-4.10306885 12.86222168 -4.5420752 13.46663086 -4.99438477 14.08935547 C-9.06159573 19.61032002 -13.4479588 24.83943932 -17.94140625 30.015625 C-19.82140633 32.2115652 -21.59370262 34.4189992 -23.2890625 36.7578125 C-22.9590625 37.0878125 -22.6290625 37.4178125 -22.2890625 37.7578125 C-21.62519531 37.07074219 -20.96132812 36.38367188 -20.27734375 35.67578125 C-18.95283203 34.32419922 -18.95283203 34.32419922 -17.6015625 32.9453125 C-16.73144531 32.05199219 -15.86132812 31.15867187 -14.96484375 30.23828125 C-12.49687111 27.9504526 -10.29171989 26.2591412 -7.2890625 24.7578125 C-4.9765625 25.0703125 -4.9765625 25.0703125 -3.2890625 25.7578125 C-2.578125 27.44140625 -2.578125 27.44140625 -2.2890625 29.7578125 C-3.6875 32.23046875 -3.6875 32.23046875 -5.6640625 34.8203125 C-8.46527761 38.52489155 -8.46527761 38.52489155 -10.2890625 42.7578125 C-4.56016849 40.92456642 -2.33155497 38.82480566 1.0625 33.94921875 C6.3572351 26.91048323 13.12723786 21.91794883 21.7109375 19.7578125 C24.3828125 19.5390625 24.3828125 19.5390625 26.7109375 19.7578125 C28.7109375 21.7578125 28.7109375 21.7578125 28.7109375 24.7578125 C28.0509375 24.7578125 27.3909375 24.7578125 26.7109375 24.7578125 C26.9584375 25.6034375 27.2059375 26.4490625 27.4609375 27.3203125 C27.80581172 32.06233304 26.22410288 33.76631455 23.7109375 37.7578125 C22.95053178 40.02767144 22.95053178 40.02767144 22.7109375 41.7578125 C27.76458604 39.87508069 31.29425254 38.1354401 34.7109375 33.7578125 C34.40821789 32.41719707 34.07255779 31.08375355 33.7109375 29.7578125 C35.73385296 26.14546346 37.24965629 24.0653333 40.7109375 21.7578125 C41.7009375 21.7578125 42.6909375 21.7578125 43.7109375 21.7578125 C43.7109375 22.4178125 43.7109375 23.0778125 43.7109375 23.7578125 C44.33742188 23.74621094 44.96390625 23.73460937 45.609375 23.72265625 C46.42664063 23.71363281 47.24390625 23.70460938 48.0859375 23.6953125 C48.89804687 23.68371094 49.71015625 23.67210937 50.546875 23.66015625 C52.7109375 23.7578125 52.7109375 23.7578125 54.7109375 24.7578125 C55.16315352 27.8479553 55.29907322 29.95243746 53.41015625 32.5390625 C52.31930067 33.72624661 51.22029472 34.9059931 50.11328125 36.078125 C48.34070012 38.20127231 47.87703791 40.01715579 47.7109375 42.7578125 C49.38393709 42.10720155 51.04952987 41.43747926 52.7109375 40.7578125 C53.4328125 40.5103125 54.1546875 40.2628125 54.8984375 40.0078125 C56.98511477 38.83930522 56.98511477 38.83930522 57.5859375 36.0703125 C59.04303008 31.77998435 61.24054363 28.68516185 64.7109375 25.7578125 C67.5859375 25.3203125 67.5859375 25.3203125 69.7109375 25.7578125 C69.39594617 29.32771419 68.45048516 31.29860798 66.1484375 33.9453125 C63.49262732 36.38941407 63.49262732 36.38941407 63.7109375 38.7578125 C64.7009375 37.7678125 64.7009375 37.7678125 65.7109375 36.7578125 C66.16210938 36.30792969 66.61328125 35.85804688 67.078125 35.39453125 C68.29673591 34.173005 69.50931493 32.9454557 70.71875 31.71484375 C71.76675781 30.65330078 71.76675781 30.65330078 72.8359375 29.5703125 C73.49851562 28.89613281 74.16109375 28.22195313 74.84375 27.52734375 C77.3311896 25.17000036 78.90818369 23.79514989 82.3984375 23.6328125 C83.1615625 23.6740625 83.9246875 23.7153125 84.7109375 23.7578125 C84.2427254 28.53357589 83.46761752 31.80257595 80.7109375 35.7578125 C81.36449219 35.19513672 81.36449219 35.19513672 82.03125 34.62109375 C83.27390222 33.55327355 84.52022001 32.48970916 85.76953125 31.4296875 C86.98957601 30.37902521 88.19310525 29.3085456 89.37109375 28.2109375 C90.8984375 26.8203125 90.8984375 26.8203125 93.7109375 24.7578125 C96.0859375 24.9453125 96.0859375 24.9453125 97.7109375 25.7578125 C98.5859375 27.7578125 98.5859375 27.7578125 98.7109375 30.7578125 C97.34875862 32.93471229 95.82034481 34.83862485 94.15625 36.79296875 C92.66391062 38.82174364 92.13798273 40.29956496 91.7109375 42.7578125 C97.19024832 40.75318659 99.50576016 37.65344304 102.94140625 33.03515625 C108.08198236 26.41935963 114.74018204 22.32024598 122.7109375 19.7578125 C126.05078125 19.625 126.05078125 19.625 128.7109375 19.7578125 C129.7009375 21.7378125 129.7009375 21.7378125 130.7109375 23.7578125 C129.7209375 24.0878125 128.7309375 24.4178125 127.7109375 24.7578125 C128.1440625 25.4178125 128.5771875 26.0778125 129.0234375 26.7578125 C129.7109375 29.7578125 129.7109375 29.7578125 128.765625 31.73046875 C127.86597154 33.10565333 126.93528747 34.46110911 125.97265625 35.79296875 C124.68231406 37.80238709 124.15216354 39.42710085 123.7109375 41.7578125 C129.955629 40.16033328 133.15983095 37.27167485 136.5234375 31.8203125 C140.0468804 26.88749244 145.09711409 23.1083158 150.7109375 20.7578125 C153.4609375 21.1328125 153.4609375 21.1328125 155.7109375 21.7578125 C156.20441925 25.90305921 155.84948057 27.5377735 153.5859375 31.1328125 C150.14898676 34.27089796 149.16185701 33.94721333 144.7109375 33.7578125 C141.87601811 35.82653746 140.88623762 37.1150454 139.9609375 40.5078125 C139.8784375 41.2503125 139.7959375 41.9928125 139.7109375 42.7578125 C146.10570502 43.4554235 149.60745655 42.30432419 154.82421875 38.53125 C157.47590529 36.03877446 158.30903523 33.08733039 159.7109375 29.7578125 C164.41727964 25.34945105 168.69498359 21.61169387 175.2734375 21.6328125 C176.48193359 21.62894531 176.48193359 21.62894531 177.71484375 21.625 C179.7109375 21.7578125 179.7109375 21.7578125 180.7109375 22.7578125 C181.2109375 24.8828125 181.2109375 24.8828125 180.7109375 27.7578125 C176.43627738 33.92159661 170.66181419 36.50612005 163.7109375 38.7578125 C164.0409375 40.0778125 164.3709375 41.3978125 164.7109375 42.7578125 C170.26568661 43.63487815 173.89589467 41.48447635 178.44921875 38.60546875 C181.32272634 36.25802645 182.46983917 34.03682287 183.86328125 30.66015625 C185.23179927 27.58887386 187.06368564 25.7747663 189.7109375 23.7578125 C193.0234375 23.4453125 193.0234375 23.4453125 195.7109375 23.7578125 C195.7109375 28.2887719 195.23963171 28.80782296 192.3359375 32.0078125 C191.70945312 32.71421875 191.08296875 33.420625 190.4375 34.1484375 C188.7109375 35.7578125 188.7109375 35.7578125 186.7109375 35.7578125 C186.7109375 37.4078125 186.7109375 39.0578125 186.7109375 40.7578125 C192.93886402 36.48374528 198.05990168 31.54859859 203.22924805 26.07739258 C204.66932199 24.58370231 206.18554477 23.16426215 207.7109375 21.7578125 C208.7009375 21.7578125 209.6909375 21.7578125 210.7109375 21.7578125 C210.57418121 28.04860202 208.09448965 31.49437886 204.3046875 36.42578125 C202.79829433 38.6299889 202.14195362 40.15375679 201.7109375 42.7578125 C209.8368666 40.02494189 216.54580671 33.14145344 220.7109375 25.7578125 C219.0609375 25.7578125 217.4109375 25.7578125 215.7109375 25.7578125 C216.64236818 22.6248184 217.31132869 21.05751911 219.9609375 19.0703125 C222.7109375 17.7578125 222.7109375 17.7578125 225.7109375 16.8203125 C228.82925301 15.90364184 228.82925301 15.90364184 231.3359375 13.6328125 C233.7109375 11.7578125 233.7109375 11.7578125 237.7109375 11.7578125 C237.3603125 12.6653125 237.0096875 13.5728125 236.6484375 14.5078125 C235.43223573 17.57113892 235.43223573 17.57113892 236.3984375 19.8203125 C236.5015625 20.4596875 236.6046875 21.0990625 236.7109375 21.7578125 C234.24491542 24.89638606 232.64756404 26.54316892 228.7109375 27.4453125 C224.47376064 29.29907738 223.59575554 32.07863863 221.69140625 36.15234375 C220.7375707 38.68703822 220.15620599 41.09098939 219.7109375 43.7578125 C224.34089317 42.43496802 227.97557767 40.82910836 231.7109375 37.7578125 C232.75812548 35.44527238 233.75440115 33.1092977 234.7109375 30.7578125 C237.50646713 26.40058267 239.45064296 24.06272247 244.5859375 22.8203125 C245.6171875 22.7996875 246.6484375 22.7790625 247.7109375 22.7578125 C247.56869352 28.44757175 245.06581413 30.93379907 241.20703125 34.73046875 C239.3549229 37.24024481 239.42030343 38.70879686 239.7109375 41.7578125 C244.60713881 41.30235191 247.22196703 40.24678297 250.7109375 36.7578125 C251.6959402 35.01022706 252.67979356 33.26161396 253.625 31.4921875 C256.7868659 26.44230096 262.48570915 23.3229246 267.7109375 20.7578125 C270.6484375 20.5078125 270.6484375 20.5078125 272.7109375 20.7578125 C273.4609375 22.8828125 273.4609375 22.8828125 273.7109375 25.7578125 C271.6621339 29.62777486 269.94359402 32.34692699 265.7109375 33.7578125 C264.4425 33.974375 264.4425 33.974375 263.1484375 34.1953125 C260.34856122 34.84143779 259.26660316 35.33788814 257.7109375 37.7578125 C257.94137614 40.41247299 257.94137614 40.41247299 258.7109375 42.7578125 C263.84399032 43.3994441 266.76468893 42.02406626 270.90625 39.2421875 C273.46669316 37.13619529 274.93067845 34.53946727 276.7109375 31.7578125 C281.99248832 26.04563164 288.2731385 22.08346435 295.7109375 19.7578125 C299.046875 19.62890625 299.046875 19.62890625 301.7109375 19.7578125 C302.3709375 21.0778125 303.0309375 22.3978125 303.7109375 23.7578125 C302.7209375 24.0878125 301.7309375 24.4178125 300.7109375 24.7578125 C301.1440625 25.4178125 301.5771875 26.0778125 302.0234375 26.7578125 C302.7109375 29.7578125 302.7109375 29.7578125 301.765625 31.73046875 C300.86597154 33.10565333 299.93528747 34.46110911 298.97265625 35.79296875 C297.68231406 37.80238709 297.15216354 39.42710085 296.7109375 41.7578125 C300.02806785 41.08314192 301.95972764 40.62470491 304.7109375 38.7578125 C306.25275221 35.99615028 307.24013982 33.191981 308.31640625 30.21875 C312.31713363 20.28977393 319.21074786 10.30767182 327.7109375 3.7578125 C329.91015625 2.96484375 329.91015625 2.96484375 331.7109375 2.7578125 C332.0409375 3.0878125 332.3709375 3.4178125 332.7109375 3.7578125 C332.3205569 16.05480137 326.3513945 24.34388433 317.7109375 32.7578125 C316.7209375 33.4178125 315.7309375 34.0778125 314.7109375 34.7578125 C314.46077877 38.34138491 314.46077877 38.34138491 314.7109375 41.7578125 C316.5425438 42.47783993 316.5425438 42.47783993 318.7109375 42.7578125 C320.45131175 41.90242276 320.45131175 41.90242276 321.98828125 40.44140625 C322.58447266 39.92384766 323.18066406 39.40628906 323.79492188 38.87304688 C324.40658203 38.31939453 325.01824219 37.76574219 325.6484375 37.1953125 C326.56012695 36.40543945 326.56012695 36.40543945 327.49023438 35.59960938 C334.09457628 29.79723259 334.09457628 29.79723259 338.7109375 22.4453125 C339.7109375 20.7578125 339.7109375 20.7578125 342.3359375 20.0078125 C343.1196875 19.9253125 343.9034375 19.8428125 344.7109375 19.7578125 C346.3445256 25.3093558 347.03120719 32.3329545 344.921875 37.8046875 C343.18092806 40.48920111 341.37765 41.98000417 338.7109375 43.7578125 C343.68731112 42.54406284 346.55400522 40.42807757 350.1953125 37 C351.7109375 35.7578125 351.7109375 35.7578125 353.7109375 35.7578125 C352.92965503 41.48294799 347.98697223 44.3827483 343.7109375 47.7578125 C339.54217172 50.56534864 336.49744296 51.29058979 331.61328125 50.484375 C328.19060307 49.17715089 326.73471021 46.73022867 324.7109375 43.7578125 C324.19144531 44.17933594 323.67195313 44.60085938 323.13671875 45.03515625 C315.57859713 50.97268248 315.57859713 50.97268248 311.7109375 50.7578125 C308.74438447 48.46932873 307.30104105 46.0851217 305.7109375 42.7578125 C305.20304687 43.25152344 304.69515625 43.74523437 304.171875 44.25390625 C297.33483908 50.61721496 297.33483908 50.61721496 291.7109375 50.7578125 C290.10368115 47.54329981 290.65345565 44.32168714 290.7109375 40.7578125 C290.27523438 41.25152344 289.83953125 41.74523437 289.390625 42.25390625 C284.46565448 47.5519806 284.46565448 47.5519806 280.2734375 48.6953125 C279.4278125 48.7159375 278.5821875 48.7365625 277.7109375 48.7578125 C274.7109375 45.1328125 274.7109375 45.1328125 274.7109375 41.7578125 C273.80601562 42.48097656 273.80601562 42.48097656 272.8828125 43.21875 C272.08359375 43.85039062 271.284375 44.48203125 270.4609375 45.1328125 C269.67203125 45.75929688 268.883125 46.38578125 268.0703125 47.03125 C265.19313729 49.13673252 262.76897668 50.54077882 259.2734375 51.2578125 C255.28830545 50.48022576 253.97897594 47.97086696 251.7109375 44.7578125 C251.3809375 43.7678125 251.0509375 42.7778125 250.7109375 41.7578125 C250.2984375 42.25152344 249.8859375 42.74523437 249.4609375 43.25390625 C246.30646685 46.75339713 244.09326544 49.14545691 239.2734375 49.6953125 C238.0978125 49.7159375 236.9221875 49.7365625 235.7109375 49.7578125 C233.08707263 46.69663682 232.7109375 46.02608123 232.7109375 41.7578125 C231.99808594 42.32371094 231.28523438 42.88960938 230.55078125 43.47265625 C220.70477363 51.01286936 220.70477363 51.01286936 214.7109375 50.7578125 C212.7109375 48.7578125 212.7109375 48.7578125 212.5859375 45.7578125 C212.6271875 44.7678125 212.6684375 43.7778125 212.7109375 42.7578125 C212.7109375 42.0978125 212.7109375 41.4378125 212.7109375 40.7578125 C212.14246094 41.39589844 211.57398438 42.03398437 210.98828125 42.69140625 C203.89233437 50.28489866 203.89233437 50.28489866 199.7734375 50.9453125 C196.7109375 50.7578125 196.7109375 50.7578125 194.7109375 48.7578125 C194.5859375 45.1328125 194.5859375 45.1328125 194.7109375 41.7578125 C194.0096875 42.7271875 193.3084375 43.6965625 192.5859375 44.6953125 C190.43932288 47.30938475 189.85258356 47.72039656 186.3984375 48.6328125 C185.5115625 48.6740625 184.6246875 48.7153125 183.7109375 48.7578125 C181.81880381 46.37207871 180.68701967 44.68605902 179.7109375 41.7578125 C179.25203125 42.16773438 178.793125 42.57765625 178.3203125 43 C177.39992188 43.80824219 177.39992188 43.80824219 176.4609375 44.6328125 C175.85765625 45.16648437 175.254375 45.70015625 174.6328125 46.25 C170.40795574 49.5646234 167.06240512 50.19511773 161.7734375 50.08203125 C159.7109375 49.7578125 159.7109375 49.7578125 157.6484375 47.9453125 C156.7109375 45.7578125 156.7109375 45.7578125 156.7109375 42.7578125 C156.1540625 43.25152344 155.5971875 43.74523437 155.0234375 44.25390625 C149.971017 48.49554981 146.46322408 51.32050305 139.7109375 50.7578125 C137.28941885 48.9651834 136.34174427 47.4078735 134.7109375 44.7578125 C134.7109375 43.7678125 134.7109375 42.7778125 134.7109375 41.7578125 C133.60685547 42.73234375 133.60685547 42.73234375 132.48046875 43.7265625 C131.50464844 44.561875 130.52882813 45.3971875 129.5234375 46.2578125 C128.56050781 47.093125 127.59757813 47.9284375 126.60546875 48.7890625 C123.55844621 50.86153127 122.29495444 51.2295661 118.7109375 50.7578125 C117.10368115 47.54329981 117.65345565 44.32168714 117.7109375 40.7578125 C117.27523437 41.25152344 116.83953125 41.74523437 116.390625 42.25390625 C111.46565448 47.5519806 111.46565448 47.5519806 107.2734375 48.6953125 C106.4278125 48.7159375 105.5821875 48.7365625 104.7109375 48.7578125 C101.7109375 44.0078125 101.7109375 44.0078125 101.7109375 41.7578125 C100.89689453 42.48097656 100.89689453 42.48097656 100.06640625 43.21875 C99.35097656 43.85039062 98.63554687 44.48203125 97.8984375 45.1328125 C97.19074219 45.75929688 96.48304688 46.38578125 95.75390625 47.03125 C91.42709471 50.6879435 91.42709471 50.6879435 88.1484375 51.0078125 C85.7109375 50.7578125 85.7109375 50.7578125 83.7109375 48.7578125 C83.93542716 43.03332629 85.72785465 39.47300797 88.7109375 34.7578125 C85.12928217 38.24409831 81.69918095 41.71693597 78.5859375 45.6328125 C76.57392676 48.05047057 75.93051278 48.68621186 72.8359375 49.6953125 C72.1346875 49.7159375 71.4334375 49.7365625 70.7109375 49.7578125 C69.66324232 46.48301671 69.57278576 45.08697791 70.92578125 41.86328125 C71.49425781 40.90035156 72.06273437 39.93742187 72.6484375 38.9453125 C73.21433594 37.96949219 73.78023438 36.99367188 74.36328125 35.98828125 C74.80800781 35.25222656 75.25273437 34.51617187 75.7109375 33.7578125 C75.3809375 33.7578125 75.0509375 33.7578125 74.7109375 33.7578125 C73.43027673 35.10430163 72.18689175 36.48633078 70.9609375 37.8828125 C70.24421875 38.69878906 69.5275 39.51476562 68.7890625 40.35546875 C66.39163336 43.12693289 64.03535073 45.92493388 61.7109375 48.7578125 C59.8359375 48.5703125 59.8359375 48.5703125 57.7109375 47.7578125 C56.578125 45.20703125 56.578125 45.20703125 55.7109375 42.7578125 C55.11925781 43.34691406 54.52757812 43.93601562 53.91796875 44.54296875 C53.12777344 45.29449219 52.33757812 46.04601562 51.5234375 46.8203125 C50.74613281 47.57441406 49.96882813 48.32851563 49.16796875 49.10546875 C46.7109375 50.7578125 46.7109375 50.7578125 44.03515625 50.69140625 C41.7109375 49.7578125 41.7109375 49.7578125 39.7109375 46.7578125 C39.82992563 40.57042967 41.99283279 37.42927739 45.7109375 32.7578125 C38.8500999 33.95292615 35.7314837 37.26817252 31.1484375 42.3203125 C24.62997883 49.50189005 24.62997883 49.50189005 20.24609375 50.72265625 C19.40949219 50.73425781 18.57289063 50.74585938 17.7109375 50.7578125 C15.42080097 47.3226077 15.53250777 45.7724815 15.7109375 41.7578125 C15.19144531 42.27472656 14.67195313 42.79164063 14.13671875 43.32421875 C13.43933594 43.98292969 12.74195313 44.64164062 12.0234375 45.3203125 C11.33894531 45.98160156 10.65445313 46.64289063 9.94921875 47.32421875 C7.7109375 48.7578125 7.7109375 48.7578125 5.0859375 48.6328125 C1.87078035 47.44828092 0.62806268 45.52699331 -1.2890625 42.7578125 C-1.75957031 43.16773438 -2.23007812 43.57765625 -2.71484375 44 C-3.33746094 44.53882813 -3.96007812 45.07765625 -4.6015625 45.6328125 C-5.21644531 46.16648437 -5.83132813 46.70015625 -6.46484375 47.25 C-8.2890625 48.7578125 -8.2890625 48.7578125 -11.2890625 50.7578125 C-15.82960304 50.21727196 -15.82960304 50.21727196 -17.2890625 48.7578125 C-16.89061567 43.89676117 -16.50185387 41.18339524 -14.2890625 36.7578125 C-17.9190625 40.7178125 -21.5490625 44.6778125 -25.2890625 48.7578125 C-26.6090625 48.4278125 -27.9290625 48.0978125 -29.2890625 47.7578125 C-30.34858063 37.33080871 -28.3530247 31.19745935 -22.2890625 22.7578125 C-21.9089502 22.22124023 -21.52883789 21.68466797 -21.13720703 21.13183594 C-5.61758975 -0.5943525 -5.61758975 -0.5943525 0 0 Z " fill="#7e173c" transform="translate(270.2890625,375.2421875)"/>
<path d="M0 0 C13.06803103 -0.58997883 25.5683481 3.04947574 35.8359375 11.28125 C36.8671875 12.02375 37.8984375 12.76625 38.9609375 13.53125 C50.99723331 25.0442286 53.7853422 37.8764876 55.8359375 54.28125 C25.8059375 54.28125 -4.2240625 54.28125 -35.1640625 54.28125 C-32.8159968 68.36964423 -30.68625325 76.78767085 -20.1640625 86.28125 C-10.69187398 92.93359292 -0.55027528 94.62637663 10.8359375 93.28125 C25.1497587 89.71427638 32.66195746 81.97458256 40.8359375 70.28125 C44.4659375 71.93125 48.0959375 73.58125 51.8359375 75.28125 C47.04143459 87.26750728 38.4898496 96.91642067 26.58203125 102.28515625 C12.66598906 107.33293827 -3.14849268 108.59814847 -17.1640625 103.28125 C-31.88316486 96.24878998 -40.67434865 85.68236438 -46.4375 70.47265625 C-50.53873553 58.10280071 -49.58760226 42.01347696 -44.1640625 30.28125 C-36.78654108 15.85888054 -25.80932882 6.47752141 -10.5390625 1.41015625 C-7.04042696 0.57577771 -3.57729395 0.31798168 0 0 Z " fill="#5C8E19" transform="translate(606.1640625,240.71875)"/>
<path d="M0 0 C7.53813531 5.31398585 12.18364377 11.61969514 15.3125 20.25 C15.67085938 21.19101562 16.02921875 22.13203125 16.3984375 23.1015625 C19.32113466 33.1686305 17.63643623 43.9186929 12.8359375 53.0625 C6.55279066 63.6204819 -0.8433085 69.70409919 -12.6875 73.25 C-23.96531397 75.45935408 -34.21576308 73.91981242 -44.1171875 68.06640625 C-52.56952931 62.09324676 -58.70182792 52.82945561 -61.328125 42.8046875 C-63.15232303 29.83701891 -60.99553315 18.98124641 -53.375 8.3125 C-39.42132771 -8.74198836 -18.35157862 -11.28853408 0 0 Z " fill="#7e173c" transform="translate(465.6875,260.75)"/>
<path d="M0 0 C7.46344133 6.38367478 13.82607094 14.83622001 15.05004883 24.82324219 C15.18748714 27.47351515 15.21783921 30.09639448 15.1875 32.75 C15.17920166 33.68102539 15.17090332 34.61205078 15.16235352 35.57128906 C14.88805966 46.68751114 11.3703266 54.25600173 3.75 62.375 C-4.98292784 70.52694303 -14.01309111 72.94918622 -25.7043457 72.77734375 C-37.16356305 72.3541306 -46.00517317 68.07361841 -54 59.75 C-62.02658243 50.08076814 -64.00876101 38.52922733 -63.25 26.375 C-61.2747449 14.70760336 -54.75517044 5.24069293 -45.25 -1.625 C-30.76356624 -10.40862952 -13.71209808 -10.2168574 0 0 Z " fill="#7e173c" transform="translate(262.25,261.625)"/>
<path d="M0 0 C8.04456206 8.39863609 13.39004483 18.80003622 14.1875 30.5625 C14.29964844 32.03589844 14.29964844 32.03589844 14.4140625 33.5390625 C15.06487182 48.71319562 10.13347801 61.86953392 0.53515625 73.578125 C-8.30323797 83.14438698 -21.35484377 89.00490576 -34.2578125 89.765625 C-50.48235722 89.9723071 -63.56119385 86.31000802 -75.48828125 75.01953125 C-87.27744846 62.55669734 -91.5659019 48.73386058 -91.125 31.85546875 C-90.40155094 18.28778456 -83.52721506 5.85147058 -73.8125 -3.4375 C-51.32894423 -22.50482645 -20.72766631 -19.8383605 0 0 Z M-68.1875 9.8125 C-76.5023833 19.78353049 -78.82461675 30.86114752 -77.8125 43.5625 C-75.31900044 55.23207792 -69.49119229 64.57132452 -59.8125 71.5625 C-49.66477143 77.7336695 -36.73936765 78.43899301 -25.28125 75.7265625 C-13.60003519 71.24073516 -6.20492516 63.17275791 -1.20703125 51.9609375 C0.58372136 47.05622725 0.68467051 42.36624797 0.625 37.1875 C0.61597656 36.25574951 0.60695313 35.32399902 0.59765625 34.36401367 C0.27854868 21.73821244 -4.59286158 13.44256443 -13.72265625 4.7421875 C-30.68653399 -9.12151546 -53.67627297 -5.40925792 -68.1875 9.8125 Z " fill="#5D8F1A" transform="translate(276.8125,257.4375)"/>
<path d="M0 0 C10.81805114 7.49375417 18.54642112 19.43577683 21.25 32.25 C22.70815956 41.54576718 22.83118283 50.96950305 20 60 C19.63261719 61.18142578 19.63261719 61.18142578 19.2578125 62.38671875 C15.02072664 74.32930147 6.28118479 85.40756819 -5.0625 91.3125 C-6.36502406 91.8977295 -7.67781681 92.46065399 -9 93 C-9.68191406 93.28617187 -10.36382812 93.57234375 -11.06640625 93.8671875 C-24.42899072 99.19193653 -38.82576103 98.21860436 -52 93 C-52.72445313 92.73445313 -53.44890625 92.46890625 -54.1953125 92.1953125 C-66.73483106 86.86474793 -75.20694199 74.88849924 -80.375 62.75 C-85.0550586 50.9481131 -84.42360668 35.76457403 -80 24 C-73.75846121 10.23660677 -62.91074211 -0.81164051 -48.75390625 -6.24609375 C-31.5551805 -11.78726626 -15.36538341 -9.23232554 0 0 Z M-60.8515625 18.0859375 C-68.89463 28.42702428 -70.89580879 38.08301512 -70 51 C-68.35505798 61.4977209 -62.26143293 70.97360352 -54.0234375 77.5703125 C-44.96835085 83.96830809 -35.03338534 85.84609833 -24.046875 84.59375 C-13.33292903 82.50590412 -4.75361265 77.36942397 1.78125 68.61328125 C8.13033985 58.7006091 10.33943965 48.73604264 9 37 C5.94614222 24.94744131 -0.45277692 15.58950318 -11 9 C-28.34139714 -0.85522023 -47.72063633 3.29286878 -60.8515625 18.0859375 Z " fill="#5D8F1A" transform="translate(474,250)"/>
<path d="M0 0 C4.29 0 8.58 0 13 0 C21.43123125 17.31778038 29.50403974 34.77502462 37.42961121 52.3283844 C40.2503289 58.56897962 43.11875579 64.78711019 46 71 C48.66806216 67.74649616 50.3260566 64.38188054 52.046875 60.55078125 C52.33519196 59.9127507 52.62350891 59.27472015 52.92056274 58.61735535 C53.86818919 56.51772387 54.80898982 54.41510392 55.75 52.3125 C56.40912628 50.85001616 57.06880242 49.38778003 57.72900391 47.92578125 C59.11164863 44.8625091 60.49187245 41.79816446 61.87011719 38.73291016 C65.0257759 31.71696808 68.19822277 24.70865345 71.37658691 17.70297241 C72.36616262 15.51949944 73.35263807 13.3346444 74.33886719 11.1496582 C74.94193048 9.81846468 75.54511398 8.4873256 76.1484375 7.15625 C76.67614746 5.98900391 77.20385742 4.82175781 77.74755859 3.61914062 C79 1 79 1 80 0 C82.18639453 -0.07258946 84.37500389 -0.08373783 86.5625 -0.0625 C88.35880859 -0.04896484 88.35880859 -0.04896484 90.19140625 -0.03515625 C91.11824219 -0.02355469 92.04507813 -0.01195312 93 0 C92.34799473 4.664956 90.48238077 8.64193472 88.4921875 12.859375 C87.95599289 14.01304314 87.95599289 14.01304314 87.40896606 15.1900177 C86.63794528 16.84750829 85.86449384 18.50386994 85.08886719 20.15921021 C83.44476109 23.66827062 81.81238173 27.18274058 80.17950439 30.69703674 C79.34312479 32.49697655 78.50616561 34.29664716 77.66864014 36.09605408 C74.0473067 43.88054357 70.4777724 51.68778548 66.93258667 59.50720215 C66.0066949 61.54774533 65.07803703 63.58700885 64.14868164 65.62597656 C61.38353833 71.69895093 58.6477691 77.7820609 55.98828125 83.90234375 C55.53130859 84.94253662 55.07433594 85.98272949 54.60351562 87.05444336 C53.77062835 88.9547431 52.94940879 90.86022005 52.14257812 92.77172852 C51.60213867 93.9984729 51.60213867 93.9984729 51.05078125 95.25 C50.74825439 95.95640625 50.44572754 96.6628125 50.1340332 97.390625 C49 99 49 99 46.87182617 99.734375 C46.25412354 99.82203125 45.6364209 99.9096875 45 100 C35.98813178 81.04962324 27.05221008 62.07154632 18.41943359 42.94506836 C15.38068291 36.216326 12.31483961 29.50294964 9.17578125 22.8203125 C8.86879303 22.16552917 8.56180481 21.51074585 8.24551392 20.83612061 C6.79031839 17.73359177 5.32927029 14.63421519 3.85839844 11.5390625 C3.34954102 10.45625 2.84068359 9.3734375 2.31640625 8.2578125 C1.86724854 7.3105127 1.41809082 6.36321289 0.95532227 5.38720703 C0 3 0 3 0 0 Z " fill="#5C8F1A" transform="translate(297,244)"/>
<path d="M0 0 C4.29 0 8.58 0 13 0 C13 12.54 13 25.08 13 38 C19.6 38 26.2 38 33 38 C33 41.63 33 45.26 33 49 C26.4 49 19.8 49 13 49 C13 78.7 13 108.4 13 139 C8.71 139 4.42 139 0 139 C0 109.3 0 79.6 0 49 C-5.94 49 -11.88 49 -18 49 C-18 45.37 -18 41.74 -18 38 C-12.06 38 -6.12 38 0 38 C0 25.46 0 12.92 0 0 Z " fill="#5D8F1B" transform="translate(522,206)"/>
<path d="M0 0 C4.29 0 8.58 0 13 0 C13 46.2 13 92.4 13 140 C8.71 140 4.42 140 0 140 C0 93.8 0 47.6 0 0 Z " fill="#5D8F1A" transform="translate(675,205)"/>
<path d="M0 0 C5.47944617 5.11087356 9.46621874 10.38206413 11.7421875 17.625 C11.7421875 18.945 11.7421875 20.265 11.7421875 21.625 C-13.0078125 21.625 -37.7578125 21.625 -63.2578125 21.625 C-59.53783175 9.22506416 -55.26002652 1.41758943 -43.8984375 -5.0703125 C-30.10726025 -11.88429653 -11.85245335 -9.83606087 0 0 Z " fill="#7e173c" transform="translate(635.2578125,262.375)"/>
<path d="M0 0 C6.00403934 4.09366318 9.85088406 9.88787826 11.75 16.875 C12.84721148 26.45066386 11.93941774 34.05014111 6.2890625 41.90625 C3.06871508 45.89490365 0.45143594 48.43874327 -4.765625 49.28125 C-10.85422925 49.49000215 -14.89521476 48.93770946 -19.5234375 44.8046875 C-25.30344156 38.34468297 -26.69459512 32.22874775 -26.8125 23.75 C-26.82732422 22.9981543 -26.84214844 22.24630859 -26.85742188 21.47167969 C-26.7287909 14.47966724 -24.36896559 9.3199603 -19.8125 4.0625 C-13.42522718 -1.39004997 -8.07330111 -2.79460423 0 0 Z " fill="#5B8E18" transform="translate(76.25,80.125)"/>
<path d="M0 0 C2.65991145 2.65991145 2.2859728 4.69995828 2.32958984 8.32202148 C2.32113037 9.58574585 2.32113037 9.58574585 2.3125 10.875 C2.30404053 12.16676147 2.30404053 12.16676147 2.29541016 13.48461914 C1.98035694 30.12785116 -4.17473065 43.33811952 -16 55 C-16.59167969 55.60199219 -17.18335938 56.20398438 -17.79296875 56.82421875 C-24.3196462 63.00511197 -32.33409818 67.39164511 -40 72 C-41.47919922 72.88945312 -41.47919922 72.88945312 -42.98828125 73.796875 C-43.98408203 74.39242187 -43.98408203 74.39242187 -45 75 C-44.83773716 84.41124447 -43.92573929 92.55891572 -37.39453125 99.7734375 C-35.08863613 101.85243676 -32.75145694 103.60007986 -30.00621033 105.06108093 C-25.16292488 107.64326118 -23.01171384 109.816834 -21.34153748 115.05186462 C-21.12699417 115.82494461 -20.91245087 116.5980246 -20.69140625 117.39453125 C-20.43815079 118.21139908 -20.18489532 119.02826691 -19.92396545 119.86988831 C-19.11045387 122.51020388 -18.33681311 125.16045518 -17.5625 127.8125 C-16.73334323 130.53575356 -15.89367076 133.25559789 -15.05249023 135.97515869 C-14.49520889 137.77706481 -13.94099531 139.57992263 -13.38989258 141.38372803 C-10.7883898 149.8491682 -7.73054919 158.09207328 -4.45141602 166.31958008 C-4.10908936 167.19122803 -3.7667627 168.06287598 -3.4140625 168.9609375 C-3.1145166 169.70134277 -2.8149707 170.44174805 -2.50634766 171.20458984 C-2 173 -2 173 -3 175 C-24.02913299 151.69116011 -37.81498359 122.04757652 -49 93 C-49.33563965 92.12939941 -49.6712793 91.25879883 -50.01708984 90.36181641 C-50.92541667 87.97659528 -51.813432 85.58546395 -52.6875 83.1875 C-53.07228516 82.14698486 -53.07228516 82.14698486 -53.46484375 81.08544922 C-55.12030038 76.36090113 -55.12030038 76.36090113 -54 73 C-52.390625 71.89453125 -52.390625 71.89453125 -50.25 70.8125 C-33.19569919 61.77101354 -14.02217683 51.07599217 -7 32 C-4.8860168 24.87640954 -3.82587984 17.91622452 -3.31640625 10.5234375 C-2.83680271 6.69845124 -1.52980504 3.52520292 0 0 Z " fill="#608D1B" transform="translate(91,239)"/>
<path d="M0 0 C3.66971388 3.76145673 5.13689852 6.96566658 5.3125 12.1875 C5.21749632 18.03972699 3.38042264 22.32973315 -0.5078125 26.69140625 C-8.35522368 33.97307383 -17.41814121 35.95574796 -27.8125 36.5625 C-28.50537109 36.60568359 -29.19824219 36.64886719 -29.91210938 36.69335938 C-31.60788686 36.79861453 -33.30392052 36.89972863 -35 37 C-35.24234375 37.67546875 -35.4846875 38.3509375 -35.734375 39.046875 C-39.21662853 48.3150267 -39.21662853 48.3150267 -43 51 C-43.99 51 -44.98 51 -46 51 C-45.68412506 46.49878207 -45.4338063 43.32129822 -42.875 39.5625 C-40.90910707 36.53377449 -40.93371535 34.84292389 -41.5625 31.3125 C-41.9453125 29.01953125 -41.9453125 29.01953125 -42 27 C-39.42330177 23.87672942 -37.79683816 23.12499422 -33.8125 22.5 C-32.4203125 22.2525 -32.4203125 22.2525 -31 22 C-30.28253572 20.6932991 -29.62828875 19.35184151 -29 18 C-27.65309542 16.06348659 -26.27581639 14.14788028 -24.875 12.25 C-24.15054688 11.26515625 -23.42609375 10.2803125 -22.6796875 9.265625 C-22.12539062 8.51796875 -21.57109375 7.7703125 -21 7 C-29.08218165 8.17877546 -29.08218165 8.17877546 -37 10.125 C-40 11 -40 11 -44 11 C-43.55233099 6.07564094 -41.36107597 2.51550378 -38 -1 C-27.63025696 -6.06965215 -9.61652781 -6.6991542 0 0 Z " fill="#7e173c" transform="translate(241,378)"/>
<path d="M0 0 C0.33 0 0.66 0 1 0 C1.03963867 0.65669678 1.07927734 1.31339355 1.12011719 1.98999023 C3.00752401 46.37437997 3.00752401 46.37437997 22.15234375 85.34765625 C23.48180569 86.4741091 24.84036149 87.56777112 26.234375 88.61328125 C28.91418075 90.71799594 30.3477484 93.03971589 32 96 C32 96.66 32 97.32 32 98 C20.78133508 98.61565844 14.8908193 97.34017934 6.25 90.3125 C-1.74024912 82.85860151 -3.58499314 73.07173645 -4.20727539 62.46801758 C-4.30556417 58.49822872 -4.33147941 54.53306174 -4.3125 50.5625 C-4.31200653 49.85210571 -4.31151306 49.14171143 -4.31100464 48.40979004 C-4.27693772 32.24808293 -3.32379943 15.84672891 0 0 Z " fill="#739D36" transform="translate(132,253)"/>
<path d="M0 0 C6.62141879 0.56666304 12.42395738 2.26407284 18.6875 4.4375 C19.61111328 4.75009766 20.53472656 5.06269531 21.48632812 5.38476562 C34.16201196 9.70125119 34.16201196 9.70125119 39 15 C39.92619141 16.00740234 39.92619141 16.00740234 40.87109375 17.03515625 C46 22.72132797 46 22.72132797 46 25 C44.24871182 24.71617054 42.49899997 24.42260471 40.75 24.125 C39.28820312 23.88136719 39.28820312 23.88136719 37.796875 23.6328125 C35.22735883 23.05144152 33.27928944 22.29159735 31 21 C33.49996659 23.9777759 36.04711071 24.94548483 39.6875 26.1875 C40.68136719 26.53167969 41.67523438 26.87585938 42.69921875 27.23046875 C43.45847656 27.48441406 44.21773437 27.73835938 45 28 C43.19632455 30.34040932 42.237142 30.95598372 39.28515625 31.50390625 C28.30948554 31.7034639 20.34829837 28.41881785 12.25 21 C7.8105814 16.25217572 0 6.81689174 0 0 Z " fill="#6E9E33" transform="translate(26,215)"/>
<path d="M0 0 C4.7769528 0.71856705 7.80740938 3.54012272 11 7 C15.03243306 13.39877103 16.8042335 19.45606319 16 27 C12.99967294 39.24133439 6.90491426 44.74764948 -3.390625 51.49609375 C-6 53 -6 53 -8 53 C-8.32421875 50.7734375 -8.32421875 50.7734375 -8 48 C-5.76953125 45.7890625 -5.76953125 45.7890625 -2.8125 43.625 C2.64716217 39.40904466 6.76714634 35.69856097 9 29 C3.72 29.66 -1.56 30.32 -7 31 C-7 29.68 -7 28.36 -7 27 C-6.08476563 26.93941406 -5.16953125 26.87882812 -4.2265625 26.81640625 C-2.44378906 26.69072266 -2.44378906 26.69072266 -0.625 26.5625 C1.15003906 26.44068359 1.15003906 26.44068359 2.9609375 26.31640625 C5.91518901 26.18915064 5.91518901 26.18915064 8 25 C7.14535156 24.67386719 6.29070312 24.34773438 5.41015625 24.01171875 C3.75306641 23.35623047 3.75306641 23.35623047 2.0625 22.6875 C0.96035156 22.25824219 -0.14179687 21.82898438 -1.27734375 21.38671875 C-4 20 -4 20 -5 17 C-3.06213915 17.47770523 -1.12472326 17.95721571 0.8125 18.4375 C1.89144531 18.70433594 2.97039062 18.97117188 4.08203125 19.24609375 C6.0740843 19.76077412 8.04811524 20.34937175 10 21 C5.582885 14.86704969 5.582885 14.86704969 0 9.875 C-0.66 9.25625 -1.32 8.6375 -2 8 C-1.78947368 1.78947368 -1.78947368 1.78947368 0 0 Z " fill="#7e173c" transform="translate(62,219)"/>
<path d="M0 0 C5.68725415 -0.18843312 9.28727672 1.16255868 13.59375 4.7890625 C13.59375 8.12315322 13.14687353 10.17771544 10.88671875 12.67578125 C2.81054456 19.82297066 -3.79678216 21.00125186 -14.40625 20.7890625 C-13.91125 19.3040625 -13.91125 19.3040625 -13.40625 17.7890625 C-9.94125 17.2940625 -9.94125 17.2940625 -6.40625 16.7890625 C-6.40625 16.1290625 -6.40625 15.4690625 -6.40625 14.7890625 C-7.72625 14.7890625 -9.04625 14.7890625 -10.40625 14.7890625 C-10.1278125 14.23734375 -9.849375 13.685625 -9.5625 13.1171875 C-8.75829919 11.4979183 -7.98984969 9.86060236 -7.25 8.2109375 C-3.73679431 1.22537736 -3.73679431 1.22537736 0 0 Z " fill="#7e173c" transform="translate(227.40625,384.2109375)"/>
<path d="M0 0 C0.66 0.33 1.32 0.66 2 1 C-2.76707079 6.7052709 -7.55891904 12.14442337 -14 16 C-14.66 16 -15.32 16 -16 16 C-16.5 13.375 -16.5 13.375 -16 10 C-11.68760579 5.41808115 -5.70955676 2.46101585 0 0 Z " fill="#7e173c" transform="translate(566,402)"/>
<path d="M0 0 C0.66 0.33 1.32 0.66 2 1 C-2.91298578 6.73738702 -7.52214646 12.03396722 -14 16 C-14.66 16 -15.32 16 -16 16 C-16.05665754 13.16712283 -16.05365087 11.57214771 -15 9 C-12.27089636 6.51169962 -9.22869148 4.7693657 -6 3 C-4.865625 2.360625 -3.73125 1.72125 -2.5625 1.0625 C-1.716875 0.711875 -0.87125 0.36125 0 0 Z " fill="#7e173c" transform="translate(393,402)"/>
<path d="M0 0 C0 3.66910381 -1.16751942 4.55727978 -3.66601562 7.07617188 C-4.16810547 7.56666016 -4.67019531 8.05714844 -5.1875 8.5625 C-5.67025391 9.05685547 -6.15300781 9.55121094 -6.65039062 10.06054688 C-9.55793791 12.94467767 -12.07789565 14.78823467 -16 16 C-16.8125 14.375 -16.8125 14.375 -17 12 C-13.13775335 5.41987607 -6.75709009 3.03907401 0 0 Z " fill="#7e173c" transform="translate(292,402)"/>
<path d="M0 0 C0.34765625 2.25390625 0.34765625 2.25390625 0 5 C-2.37890625 7.02734375 -2.37890625 7.02734375 -5.5625 8.9375 C-10.45616969 11.98952831 -14.73837311 15.12579374 -19 19 C-16.75629785 12.45586873 -12.66927451 8.48998993 -7.375 4.1875 C-6.41335937 3.39730469 -5.45171875 2.60710937 -4.4609375 1.79296875 C-2 0 -2 0 0 0 Z " fill="#5E9118" transform="translate(54,268)"/>
<path d="M0 0 C0.08131463 1.43655854 0.13933559 2.8744483 0.1875 4.3125 C0.22230469 5.11300781 0.25710938 5.91351563 0.29296875 6.73828125 C-0.06198392 9.47851584 -0.89366282 10.29171079 -3 12 C-5.49361571 10.79618552 -7.68143083 9.54571278 -10 8 C-8.71451591 6.66070495 -7.42141845 5.32871357 -6.125 4 C-5.04605469 2.88625 -5.04605469 2.88625 -3.9453125 1.75 C-2 0 -2 0 0 0 Z " fill="#7e173c" transform="translate(609,405)"/>
<path d="M0 0 C1.1446875 0.3403125 1.1446875 0.3403125 2.3125 0.6875 C1.94737253 3.3894433 1.61380763 5.27140852 0 7.5 C-1.6875 8.6875 -1.6875 8.6875 -5.6875 8.6875 C-6.04825949 3.27610759 -6.04825949 3.27610759 -4.5 0.75 C-2.6875 -0.3125 -2.6875 -0.3125 0 0 Z " fill="#7e173c" transform="translate(522.6875,387.3125)"/>
<path d="M0 0 C1 3 1 3 -0.00390625 5.5234375 C-3.08257586 11.15609118 -5.68916978 15.33299818 -11 19 C-9.60318936 13.9499923 -7.40056078 10.30405582 -4.375 6.125 C-3.95476563 5.53203125 -3.53453125 4.9390625 -3.1015625 4.328125 C-2.07434578 2.88068326 -1.0380937 1.43966081 0 0 Z " fill="#7e173c" transform="translate(597,385)"/>
<path d="M0 0 C0.66 0.33 1.32 0.66 2 1 C-3.4511097 6.03432465 -8.84108352 10.84942585 -15 15 C-15 12 -15 12 -13.125 9.75 C-9.16098867 5.99280665 -4.51655507 3.04319342 0 0 Z " fill="#709C36" transform="translate(200,99)"/>
<path d="M0 0 C-1.39935885 3.40364888 -2.87004732 4.90806188 -6 6.8125 C-7.051875 7.47185547 -7.051875 7.47185547 -8.125 8.14453125 C-8.74375 8.42683594 -9.3625 8.70914062 -10 9 C-10.66 8.67 -11.32 8.34 -12 8 C-5.56521739 0 -5.56521739 0 0 0 Z " fill="#7e173c" transform="translate(446,401)"/>
<path d="M0 0 C5.33333333 2.66666667 10.66666667 5.33333333 16 8 C15.67 8.99 15.34 9.98 15 11 C8.60257818 8.19258771 4.03581653 5.78467036 0 0 Z " fill="#5D8F1A" transform="translate(41,227)"/>
<path d="M0 0 C0.99 0.495 0.99 0.495 2 1 C1.01 1.495 1.01 1.495 0 2 C0 1.34 0 0.68 0 0 Z M-2 3 C-1.67 3.99 -1.34 4.98 -1 6 C-2.65 7.32 -4.3 8.64 -6 10 C-4.92598892 7.08482708 -4.22189824 5.22189824 -2 3 Z " fill="#65981D" transform="translate(41,277)"/>
<path d="M0 0 C1 3 1 3 -0.1875 6.125 C-2 9 -2 9 -4.1875 9.875 C-5.0846875 9.936875 -5.0846875 9.936875 -6 10 C-4.34832443 6.4213696 -2.21713508 3.25179812 0 0 Z " fill="#7e173c" transform="translate(597,385)"/>
<path d="M0 0 C1.41687119 4.25061356 0.19320039 6.71851625 -1 11 C-1.99 10.34 -2.98 9.68 -4 9 C-2.80100302 5.9168649 -1.52299523 2.93720508 0 0 Z " fill="#78A140" transform="translate(48,15)"/>
<path d="M0 0 C2.31 0.66 4.62 1.32 7 2 C7 2.99 7 3.98 7 5 C4.0625 4.1875 4.0625 4.1875 1 3 C0.67 2.01 0.34 1.02 0 0 Z " fill="#7e173c" transform="translate(57,236)"/>
</svg>
